<?xml version="1.0" encoding="UTF-8" standalone="no"?>
<svg
   xmlns:dc="http://purl.org/dc/elements/1.1/"
   xmlns:cc="http://creativecommons.org/ns#"
   xmlns:rdf="http://www.w3.org/1999/02/22-rdf-syntax-ns#"
   xmlns:svg="http://www.w3.org/2000/svg"
   xmlns="http://www.w3.org/2000/svg"
   xmlns:sodipodi="http://sodipodi.sourceforge.net/DTD/sodipodi-0.dtd"
   xmlns:inkscape="http://www.inkscape.org/namespaces/inkscape"
   sodipodi:docname="RAPChartDark.svg"
   inkscape:version="1.0 (4035a4fb49, 2020-05-01)"
   id="svg8"
   version="1.1"
   viewBox="0 0 210 210"
   height="210mm"
   width="210mm">
  <defs
     id="defs2" />
  <sodipodi:namedview
     inkscape:window-maximized="1"
     inkscape:window-y="-9"
     inkscape:window-x="-9"
     inkscape:window-height="1051"
     inkscape:window-width="1920"
     showgrid="false"
     inkscape:document-rotation="0"
     inkscape:current-layer="layer1"
     inkscape:document-units="mm"
     inkscape:cy="434.03029"
     inkscape:cx="368.60973"
     inkscape:zoom="0.7"
     inkscape:pageshadow="2"
     inkscape:pageopacity="0.0"
     borderopacity="1.0"
     bordercolor="#666666"
     pagecolor="#ffffff"
     id="base" />
  <metadata
     id="metadata5">
    <rdf:RDF>
      <cc:Work
         rdf:about="">
        <dc:format>image/svg+xml</dc:format>
        <dc:type
           rdf:resource="http://purl.org/dc/dcmitype/StillImage" />
        <dc:title></dc:title>
      </cc:Work>
    </rdf:RDF>
  </metadata>
  <g
     id="layer1"
     inkscape:groupmode="layer"
     inkscape:label="Layer 1">
    <path
       d=""
       id="path849"
       style="fill:#000000;stroke-width:0.415183" />
    <path
       d=""
       id="path847"
       style="fill:#000000;stroke-width:0.415183" />
    <circle
       r="98.705101"
       cy="102.62053"
       cx="105.26637"
       id="path1055"
       style="fill:#656668;fill-opacity:1;stroke:#000000;stroke-width:0.434347" />
    <g
       style="fill:#ffffff;fill-opacity:1"
       transform="matrix(0.93936381,0,0,0.93936381,-4.0571033,9.1236919)"
       id="g1037">
      <path
         id="path1053"
         d="m 155.09442,46.246839 c 0.0259,-0.629865 0.15406,-0.757984 0.32666,-0.326663 0.15619,0.390306 0.13698,0.856645 -0.0427,1.03631 -0.17967,0.179664 -0.30745,-0.139677 -0.28398,-0.709647 z"
         style="fill:#ffffff;fill-opacity:1;stroke-width:0.540683" />
      <path
         id="path1051"
         d="m 169.00812,32.135129 c 0.3903,-0.156188 0.85664,-0.136979 1.03631,0.04269 0.17966,0.179665 -0.13968,0.307454 -0.70965,0.283977 -0.62987,-0.02594 -0.75798,-0.154062 -0.32666,-0.326662 z"
         style="fill:#ffffff;fill-opacity:1;stroke-width:0.540683" />
      <path
         id="path1049"
         d="m 124.70451,104.5505 c -0.67254,-0.85756 -0.65341,-0.87668 0.20414,-0.20414 0.52041,0.40813 0.9462,0.83392 0.9462,0.94619 0,0.44501 -0.44401,0.15859 -1.15034,-0.74205 z m -4.32546,-4.866149 c -0.67254,-0.857556 -0.65342,-0.87668 0.20414,-0.204141 0.5204,0.408135 0.94619,0.83392 0.94619,0.9462 0,0.445 -0.444,0.15858 -1.15033,-0.742059 z m -4.32547,-4.866148 c -0.67254,-0.857556 -0.65341,-0.87668 0.20414,-0.204141 0.52041,0.408135 0.9462,0.833923 0.9462,0.946196 0,0.445004 -0.44401,0.158588 -1.15034,-0.742055 z m -4.32546,-4.866148 c -0.67254,-0.857556 -0.65342,-0.87668 0.20414,-0.20414 0.5204,0.408134 0.94619,0.833922 0.94619,0.946195 0,0.445004 -0.444,0.158588 -1.15033,-0.742055 z m -2.59176,-10.182863 c 0.026,-0.629867 0.15406,-0.757985 0.32666,-0.326664 0.15618,0.390302 0.13698,0.856642 -0.0427,1.036311 -0.17967,0.179663 -0.30746,-0.139681 -0.28398,-0.709647 z M 96.556582,64.576114 c 0.390306,-0.156188 0.856645,-0.136979 1.03631,0.04269 0.179664,0.179665 -0.139677,0.307455 -0.709647,0.283978 -0.629865,-0.02594 -0.757984,-0.154063 -0.326663,-0.326663 z"
         style="fill:#ffffff;fill-opacity:1;stroke-width:0.540683" />
      <path
         id="path1047"
         d="m 109.13636,78.147141 c 0.026,-0.629865 0.15406,-0.757983 0.32666,-0.326663 0.15618,0.390306 0.13698,0.856645 -0.0427,1.03631 -0.17967,0.179664 -0.30746,-0.139677 -0.28398,-0.709647 z M 94.934533,64.576114 c 0.390306,-0.156188 0.856645,-0.136979 1.036309,0.04269 0.179664,0.179665 -0.139676,0.307455 -0.709646,0.283978 -0.629865,-0.02594 -0.757984,-0.154063 -0.326663,-0.326663 z"
         style="fill:#ffffff;fill-opacity:1;stroke-width:0.540683" />
      <path
         id="path1045"
         d="m 131.70098,106.20871 c 0.39031,-0.15618 0.85664,-0.13698 1.03631,0.0427 0.17967,0.17967 -0.13968,0.30746 -0.70964,0.28398 -0.62987,-0.0259 -0.75799,-0.15406 -0.32667,-0.32666 z"
         style="fill:#ffffff;fill-opacity:1;stroke-width:0.540683" />
      <path
         id="path1043"
         d="m 94.934533,92.150954 c 0.390306,-0.156187 0.856645,-0.136982 1.036309,0.04266 0.179664,0.179669 -0.139676,0.307454 -0.709646,0.283977 -0.629865,-0.02595 -0.757984,-0.154062 -0.326663,-0.326659 z"
         style="fill:#ffffff;fill-opacity:1;stroke-width:0.540683" />
      <path
         id="path1041"
         d="m 141.53466,130.16398 c 0,-0.11228 0.42578,-0.53807 0.94619,-0.9462 0.85756,-0.67254 0.87668,-0.65342 0.20414,0.20414 -0.70633,0.90064 -1.15033,1.18706 -1.15033,0.74206 z"
         style="fill:#ffffff;fill-opacity:1;stroke-width:0.540683" />
      <path
         id="path1039"
         d="m 55.021862,156.38858 c -4.588793,-1.5048 -8.152223,-5.02941 -9.427939,-9.3252 -1.04195,-3.50863 -1.047094,-4.45247 -0.0427,-7.83465 1.637245,-5.5132 6.703457,-9.39158 12.596897,-9.64341 l 3.095094,-0.13226 11.990866,-20.97048 11.990865,-20.970487 -1.441401,-2.178104 c -2.048535,-3.095546 -2.357879,-9.005464 -0.655451,-12.522209 1.462291,-3.02069 5.191638,-6.383488 8.018596,-7.230465 5.004822,-1.499481 10.963631,-0.04333 14.265501,3.486057 3.383,3.616109 4.64383,9.83009 2.86054,14.098105 -0.75944,1.817581 -0.74617,2.049216 0.17709,3.091561 18.78474,21.207812 18.56281,20.981592 20.25292,20.643572 0.88701,-0.1774 2.4968,-0.32255 3.57732,-0.32255 h 1.96458 l 12.66137,-25.341103 12.66137,-25.341101 -1.18612,-1.507914 c -2.86567,-3.643107 -3.41011,-9.916637 -1.23125,-14.187547 2.48102,-4.863206 6.66642,-7.39346 12.22983,-7.39346 4.4903,0 7.1519,1.180235 10.15308,4.502182 5.33677,5.907166 4.23367,15.262112 -2.36314,20.040816 -2.12667,1.540549 -7.43439,3.085254 -8.80024,2.56113 -0.44007,-0.168869 -5.11119,8.618211 -13.46015,25.320569 -11.46752,22.941108 -12.6962,25.653668 -11.91342,26.301398 2.64483,2.18851 3.74708,9.72152 2.02672,13.85113 -1.10473,2.65187 -4.31149,5.94875 -7.00247,7.19926 -2.48123,1.15305 -6.97313,1.3319 -10.07918,0.4013 -6.74125,-2.01973 -11.01409,-11.08275 -8.29413,-17.59252 0.75944,-1.81758 0.74617,-2.04922 -0.17709,-3.09156 C 102.0679,92.654027 100.82344,91.354787 99.696713,91.657186 c -0.630502,0.169212 -2.405614,0.31099 -3.9447,0.31505 l -2.798337,0.0074 -11.986158,20.951474 -11.986158,20.95147 1.534205,2.70341 c 1.287174,2.26812 1.532192,3.31283 1.521702,6.4882 -0.01853,5.61082 -2.549101,9.75204 -7.503723,12.2797 -2.330535,1.18895 -7.369713,1.73713 -9.511682,1.03471 z"
         style="fill:#ffffff;fill-opacity:1;stroke-width:0.540683" />
    </g>
  </g>
</svg>
