<?xml version="1.0" encoding="UTF-8" standalone="no"?>
<svg
   xmlns:dc="http://purl.org/dc/elements/1.1/"
   xmlns:cc="http://creativecommons.org/ns#"
   xmlns:rdf="http://www.w3.org/1999/02/22-rdf-syntax-ns#"
   xmlns:svg="http://www.w3.org/2000/svg"
   xmlns="http://www.w3.org/2000/svg"
   xmlns:sodipodi="http://sodipodi.sourceforge.net/DTD/sodipodi-0.dtd"
   xmlns:inkscape="http://www.inkscape.org/namespaces/inkscape"
   sodipodi:docname="Camera.svg"
   inkscape:version="1.0 (4035a4fb49, 2020-05-01)"
   id="svg8"
   version="1.1"
   viewBox="0 0 210 210"
   height="210mm"
   width="210mm">
  <defs
     id="defs2" />
  <sodipodi:namedview
     inkscape:window-maximized="1"
     inkscape:window-y="-9"
     inkscape:window-x="-9"
     inkscape:window-height="1051"
     inkscape:window-width="1920"
     showgrid="false"
     inkscape:document-rotation="0"
     inkscape:current-layer="layer1"
     inkscape:document-units="mm"
     inkscape:cy="570.98995"
     inkscape:cx="-84.536035"
     inkscape:zoom="0.33356343"
     inkscape:pageshadow="2"
     inkscape:pageopacity="0.0"
     borderopacity="1.0"
     bordercolor="#666666"
     pagecolor="#ffffff"
     id="base" />
  <metadata
     id="metadata5">
    <rdf:RDF>
      <cc:Work
         rdf:about="">
        <dc:format>image/svg+xml</dc:format>
        <dc:type
           rdf:resource="http://purl.org/dc/dcmitype/StillImage" />
        <dc:title></dc:title>
      </cc:Work>
    </rdf:RDF>
  </metadata>
  <g
     id="layer1"
     inkscape:groupmode="layer"
     inkscape:label="Layer 1">
    <rect
       ry="10.095819"
       y="5.0695148"
       x="4.8108516"
       height="200.45213"
       width="199.9176"
       id="rect877"
       style="fill:#656668;fill-opacity:1;stroke:#000000;stroke-width:0.163" />
    <g
       style="fill:#ffffff;fill-opacity:1"
       transform="matrix(0.92571079,0,0,0.92571079,5.0748247,9.257775)"
       id="g861">
      <path
         id="path873"
         d="m 106.48767,149.34716 c 0.27673,-0.11074 0.60738,-0.0971 0.73477,0.0302 0.12738,0.12739 -0.099,0.21799 -0.50316,0.20135 -0.44659,-0.0184 -0.53743,-0.10924 -0.23161,-0.23161 z m 1.91679,0 c 0.27673,-0.11074 0.60738,-0.0971 0.73477,0.0302 0.12738,0.12739 -0.099,0.21799 -0.50316,0.20135 -0.44659,-0.0184 -0.53743,-0.10924 -0.23161,-0.23161 z M 76.608741,135.13728 c -0.476847,-0.60803 -0.463288,-0.62159 0.14474,-0.14474 0.638579,0.50081 0.841655,0.81562 0.526136,0.81562 -0.0796,0 -0.381499,-0.3019 -0.670876,-0.67088 z m 61.386139,0.52614 c 0,-0.0796 0.3019,-0.3815 0.67088,-0.67088 0.60803,-0.47685 0.62159,-0.46329 0.14474,0.14474 -0.50081,0.63858 -0.81562,0.84166 -0.81562,0.52614 z M 67.134226,112.42334 c 0,-0.52712 0.08702,-0.74276 0.193362,-0.4792 0.106348,0.26356 0.106348,0.69483 0,0.95839 -0.106347,0.26356 -0.193362,0.0479 -0.193362,-0.47919 z m 80.888484,0 c 0,-0.52712 0.087,-0.74276 0.19336,-0.4792 0.10635,0.26356 0.10635,0.69483 0,0.95839 -0.10634,0.26356 -0.19336,0.0479 -0.19336,-0.47919 z m -80.918746,-7.12407 c 0.0184,-0.44659 0.109234,-0.53743 0.23161,-0.23161 0.11074,0.27673 0.09712,0.60738 -0.03025,0.73477 -0.12739,0.12739 -0.217993,-0.099 -0.201347,-0.50316 z m 80.888486,0 c 0.0184,-0.44659 0.10923,-0.53743 0.23161,-0.23161 0.11074,0.27673 0.0971,0.60738 -0.0302,0.73477 -0.12738,0.12739 -0.21799,-0.099 -0.20134,-0.50316 z M 77.041,81.993333 c 0,-0.07961 0.301894,-0.381499 0.670876,-0.670876 0.608028,-0.476848 0.621588,-0.463288 0.14474,0.14474 C 77.355809,82.105775 77.041,82.308851 77.041,81.993333 Z m 60.52162,-0.526136 c -0.47684,-0.608028 -0.46328,-0.621588 0.14474,-0.14474 0.63858,0.500807 0.84166,0.815616 0.52614,0.815616 -0.0796,0 -0.3815,-0.301894 -0.67088,-0.670876 z m -32.60838,-1.12443 c 0.27673,-0.110741 0.60738,-0.09712 0.73477,0.03025 0.12738,0.127386 -0.099,0.217992 -0.50316,0.201347 -0.44659,-0.0184 -0.53743,-0.109234 -0.23161,-0.23161 z m 4.98365,0 c 0.27673,-0.110741 0.60738,-0.09712 0.73477,0.03025 0.12738,0.127386 -0.099,0.217992 -0.50316,0.201347 -0.44659,-0.0184 -0.53743,-0.109234 -0.23161,-0.23161 z M 79.724504,79.309828 c 0,-0.0796 0.301894,-0.381498 0.670876,-0.670876 0.608028,-0.476847 0.621588,-0.463288 0.144741,0.144741 -0.500807,0.638578 -0.815617,0.841654 -0.815617,0.526135 z m 55.154616,-0.526135 c -0.47685,-0.608029 -0.46329,-0.621588 0.14474,-0.144741 0.63858,0.500807 0.84165,0.815617 0.52614,0.815617 -0.0796,0 -0.3815,-0.301894 -0.67088,-0.670876 z m 25.68497,-8.433871 c -0.47685,-0.608028 -0.46329,-0.621587 0.14474,-0.14474 0.63858,0.500807 0.84165,0.815616 0.52613,0.815616 -0.0796,0 -0.38149,-0.301894 -0.67087,-0.670876 z M 26.169297,40.735436 c 0,-1.159657 0.07187,-1.634063 0.159703,-1.054234 0.08784,0.579829 0.08784,1.528639 0,2.108468 -0.08784,0.579828 -0.159703,0.105423 -0.159703,-1.054234 z"
         style="fill:#ffffff;fill-opacity:1;stroke-width:0.383358" />
      <path
         id="path871"
         d="m 58.754704,40.735436 c 0,-1.159657 0.07187,-1.634063 0.159703,-1.054234 0.08784,0.579829 0.08784,1.528639 0,2.108468 -0.08783,0.579828 -0.159703,0.105423 -0.159703,-1.054234 z"
         style="fill:#ffffff;fill-opacity:1;stroke-width:0.383358" />
      <path
         id="path869"
         d="m 168.95102,60.767028 c 2.58287,-0.06632 6.80939,-0.06632 9.39227,0 2.58287,0.06632 0.46961,0.12059 -4.69614,0.12059 -5.16574,0 -7.279,-0.05427 -4.69613,-0.12059 z"
         style="fill:#ffffff;fill-opacity:1;stroke-width:0.383358" />
      <path
         id="path867"
         d="m 103.7802,149.35515 c 0.26356,-0.10635 0.69484,-0.10635 0.9584,0 0.26356,0.10634 0.0479,0.19336 -0.4792,0.19336 -0.52712,0 -0.74276,-0.087 -0.4792,-0.19336 z m 6.90044,0 c 0.26356,-0.10635 0.69484,-0.10635 0.9584,0 0.26356,0.10634 0.0479,0.19336 -0.4792,0.19336 -0.52712,0 -0.74276,-0.087 -0.4792,-0.19336 z m -4.98365,-12.26745 c 0.26356,-0.10635 0.69484,-0.10635 0.9584,0 0.26355,0.10635 0.0479,0.19336 -0.4792,0.19336 -0.52712,0 -0.74276,-0.087 -0.4792,-0.19336 z m 3.06686,0 c 0.26356,-0.10635 0.69484,-0.10635 0.9584,0 0.26356,0.10635 0.0479,0.19336 -0.4792,0.19336 -0.52712,0 -0.74275,-0.087 -0.4792,-0.19336 z m -3.0429,-69.012381 c 0.27674,-0.110741 0.60738,-0.09712 0.73477,0.03025 0.12739,0.127386 -0.099,0.217993 -0.50316,0.201348 -0.44659,-0.0184 -0.53742,-0.109234 -0.23161,-0.23161 z m 3.45022,0 c 0.27674,-0.110741 0.60739,-0.09712 0.73477,0.03025 0.12739,0.127386 -0.099,0.217993 -0.50316,0.201348 -0.44659,-0.0184 -0.53742,-0.109234 -0.23161,-0.23161 z M 27.587849,35.223689 c 0,-0.07961 0.301895,-0.381501 0.670877,-0.670876 0.608026,-0.476848 0.621586,-0.463289 0.144738,0.144738 -0.500807,0.638578 -0.815615,0.841654 -0.815615,0.526138 z"
         style="fill:#ffffff;fill-opacity:1;stroke-width:0.383358" />
      <path
         id="path865"
         d="m 107.23042,137.0877 c 0.26356,-0.10635 0.69484,-0.10635 0.9584,0 0.26356,0.10635 0.0479,0.19336 -0.4792,0.19336 -0.52712,0 -0.74276,-0.087 -0.4792,-0.19336 z M 24.233469,42.771322 c 0.368982,-0.09642 0.97277,-0.09642 1.341752,0 0.368982,0.09643 0.06709,0.175321 -0.670876,0.175321 -0.737964,0 -1.039858,-0.0789 -0.670876,-0.175321 z m 38.697888,-0.02158 c 2.254914,-0.06766 6.050155,-0.0679 8.43387,-3.83e-4 2.383711,0.06737 0.538779,0.122728 -4.09985,0.123016 -4.638629,2.91e-4 -6.588938,-0.05483 -4.33402,-0.122487 z m 89.946633,-0.0015 c 7.2369,-0.05836 18.96765,-0.05832 26.06833,7.3e-5 7.10068,0.0584 1.17958,0.106148 -13.158,0.106105 -14.33758,-3.8e-5 -20.14723,-0.04782 -12.91033,-0.106178 z M 37.075954,33.164995 c 3.004566,-0.06477 7.921129,-0.06477 10.925696,0 3.004566,0.06477 0.546285,0.117765 -5.462848,0.117765 -6.009133,0 -8.467415,-0.05299 -5.462848,-0.117765 z"
         style="fill:#ffffff;fill-opacity:1;stroke-width:0.383358" />
      <path
         id="path863"
         d="M 21.31991,174.50849 C 15.608601,173.55019 10.913552,168.7114 9.9426568,162.78292 9.405001,159.49989 9.4465301,57.651488 9.986727,54.702562 11.214416,48.000629 16.29182,43.516317 23.179235,43.05107 l 3.066862,-0.207167 0.212551,-2.875183 c 0.238819,-3.230512 0.593535,-4.081403 2.300046,-5.517338 l 1.188129,-0.999744 h 12.466403 c 10.852194,0 12.603844,0.08119 13.527828,0.626998 1.713993,1.012482 2.485914,2.6972 2.698773,5.890084 l 0.191679,2.875183 8.242192,0.09415 c 4.533206,0.05178 8.428676,-0.03446 8.656602,-0.191679 0.227921,-0.157207 2.707548,-4.167329 5.51028,-8.911381 2.802729,-4.744052 5.539125,-9.101046 6.080882,-9.682209 0.541754,-0.581163 1.598602,-1.227117 2.34855,-1.435454 1.81424,-0.503997 34.264978,-0.503997 36.079218,0 0.74995,0.208337 1.80679,0.854291 2.34855,1.435454 0.54175,0.581163 3.27815,4.938157 6.08088,9.682209 2.80273,4.744052 5.28236,8.752292 5.51028,8.907199 0.22793,0.154907 12.61309,0.28429 27.52259,0.287518 26.62062,0.0057 27.14701,0.0204 29.26694,0.813566 4.59346,1.718631 8.10619,5.986143 8.95915,10.884186 0.53527,3.073716 0.57195,104.800958 0.039,108.055458 -1.00012,6.1069 -5.63618,10.75314 -11.72438,11.75011 -2.79489,0.45767 -169.699949,0.43392 -172.4323,-0.0245 z M 117.8596,148.3018 c 23.24497,-6.03402 36.36387,-30.98343 28.13816,-53.512921 C 141.61809,82.793366 131.39673,73.276717 119.0496,69.698655 105.07445,65.648817 90.325047,69.23897 79.769756,79.259766 70.519636,88.04148 66.149373,99.505671 67.16243,112.33163 c 1.440613,18.23901 15.116851,33.2113 33.5146,36.69066 4.58158,0.86646 12.31895,0.54203 17.18257,-0.72049 z m -17.34579,-12.11607 c -9.678747,-2.53598 -17.602296,-10.48147 -20.256075,-20.31217 -0.844859,-3.12971 -0.947978,-10.42293 -0.189321,-13.39006 2.516863,-9.84356 9.573873,-17.461162 19.143449,-20.664166 2.616337,-0.875704 3.549457,-0.983726 8.497757,-0.983726 4.9483,0 5.88142,0.108022 8.49776,0.983726 9.56957,3.203004 16.62658,10.820606 19.14345,20.664166 0.75865,2.96713 0.65553,10.26035 -0.18933,13.39006 -2.67456,9.9077 -10.6251,17.82825 -20.40701,20.33004 -3.94281,1.0084 -10.35454,1.00035 -14.24068,-0.0179 z m 86.19555,-65.821064 c 1.46515,-1.571272 1.71149,-2.340859 1.50795,-4.710976 -0.12628,-1.470484 -1.01258,-2.914769 -2.39276,-3.899193 -1.2245,-0.873381 -1.47503,-0.895363 -11.5296,-1.011643 -9.75969,-0.112876 -10.35888,-0.07877 -11.88409,0.676446 -2.14203,1.060636 -3.05677,2.414694 -3.231,4.782703 -0.1686,2.291689 0.7075,3.998827 2.67554,5.213458 1.18724,0.732735 1.79931,0.765949 12.29899,0.667372 l 11.04957,-0.10374 z"
         style="fill:#ffffff;fill-opacity:1;stroke-width:0.383358" />
    </g>
  </g>
</svg>
